<svg width="35" height="35" viewBox="0 0 35 35" fill="none" xmlns="http://www.w3.org/2000/svg">
<path d="M33.3266 19.9938V8.33437H31.6641V18.3313H30.0016V16.6687H28.3281V30.0016H30.0016V28.3281H33.3266V26.6656H35V19.9938H33.3266ZM26.6656 13.3328H28.3281V16.6687H26.6656V13.3328ZM6.66095 30.0016V31.6641H8.33439V33.3375H9.99689V31.6641H24.9922V33.3375H26.6656V31.6641H28.3281V30.0016H6.66095ZM24.9922 19.9938H26.6656V23.3297H24.9922V19.9938ZM24.9922 11.6703H26.6656V13.3328H24.9922V11.6703ZM21.6672 18.3313H24.9922V19.9938H21.6672V18.3313ZM9.99689 33.3375H24.9922V35H9.99689V33.3375ZM21.6672 23.3297H24.9922V25.0031H21.6672V23.3297ZM19.9938 19.9938H21.6672V23.3297H19.9938V19.9938ZM19.9938 1.6625H21.6672V3.33594H19.9938V1.6625ZM14.9953 26.6656H19.9938V28.3281H14.9953V26.6656ZM14.9953 0H19.9938V1.6625H14.9953V0ZM13.3328 19.9938H14.9953V23.3297H13.3328V19.9938ZM13.3328 1.6625H14.9953V3.33594H13.3328V1.6625ZM9.99689 18.3313H13.3328V19.9938H9.99689V18.3313ZM24.9922 11.6703V9.99688H18.3313V4.99844H19.9938V3.33594H14.9953V4.99844H16.6578V9.99688H9.99689V11.6703H24.9922Z" fill="#1A4D1A"/>
<path d="M9.99688 23.3297H13.3328V25.0031H9.99688V23.3297ZM8.33437 19.9937H9.99688V23.3297H8.33437V19.9937ZM8.33437 11.6703H9.99688V13.3328H8.33437V11.6703ZM6.66094 13.3328H8.33437V16.6687H6.66094V13.3328ZM6.66094 16.6687H4.99844V18.3312H3.325V8.33435H1.6625V19.9937H0V26.6656H1.6625V28.3281H4.99844V30.0015H6.66094V16.6687Z" fill="#1A4D1A"/>
</svg>
