<svg width="20" height="20" viewBox="0 0 20 20" fill="none" xmlns="http://www.w3.org/2000/svg">
<path d="M11.0825 2.62354L18.2775 15.0852C18.3872 15.2752 18.445 15.4908 18.445 15.7102C18.445 15.9296 18.3872 16.1452 18.2775 16.3352C18.1678 16.5252 18.01 16.683 17.82 16.7927C17.63 16.9024 17.4144 16.9602 17.195 16.9602H2.80502C2.5856 16.9602 2.37005 16.9024 2.18003 16.7927C1.99001 16.683 1.83222 16.5252 1.72251 16.3352C1.61281 16.1452 1.55505 15.9296 1.55505 15.7102C1.55506 15.4908 1.61281 15.2752 1.72252 15.0852L8.91752 2.62354C9.39835 1.7902 10.6009 1.7902 11.0825 2.62354ZM10 4.08187L3.52669 15.2935H16.4734L10 4.08187ZM10 12.5002C10.221 12.5002 10.433 12.588 10.5893 12.7443C10.7456 12.9006 10.8334 13.1125 10.8334 13.3335C10.8334 13.5545 10.7456 13.7665 10.5893 13.9228C10.433 14.0791 10.221 14.1669 10 14.1669C9.77901 14.1669 9.56705 14.0791 9.41077 13.9228C9.25449 13.7665 9.16669 13.5545 9.16669 13.3335C9.16669 13.1125 9.25449 12.9006 9.41077 12.7443C9.56705 12.588 9.77901 12.5002 10 12.5002ZM10 6.66687C10.221 6.66687 10.433 6.75467 10.5893 6.91095C10.7456 7.06723 10.8334 7.27919 10.8334 7.5002V10.8335C10.8334 11.0545 10.7456 11.2665 10.5893 11.4228C10.433 11.5791 10.221 11.6669 10 11.6669C9.77901 11.6669 9.56705 11.5791 9.41077 11.4228C9.25449 11.2665 9.16669 11.0545 9.16669 10.8335V7.5002C9.16669 7.27919 9.25449 7.06723 9.41077 6.91095C9.56705 6.75467 9.77901 6.66687 10 6.66687Z" fill="#1A1A18"/>
</svg>
