<svg width="35" height="35" viewBox="0 0 35 35" fill="none" xmlns="http://www.w3.org/2000/svg">
<path d="M26.25 2.91663H8.75001C7.14584 2.91663 5.83334 4.22913 5.83334 5.83329V29.1666C5.83334 30.7708 7.14584 32.0833 8.75001 32.0833H26.25C27.8542 32.0833 29.1667 30.7708 29.1667 29.1666V5.83329C29.1667 4.22913 27.8542 2.91663 26.25 2.91663ZM13.125 27.7083H10.2083V24.7916H13.125V27.7083ZM13.125 21.875H10.2083V18.9583H13.125V21.875ZM13.125 16.0416H10.2083V13.125H13.125V16.0416ZM18.9583 27.7083H16.0417V24.7916H18.9583V27.7083ZM18.9583 21.875H16.0417V18.9583H18.9583V21.875ZM18.9583 16.0416H16.0417V13.125H18.9583V16.0416ZM24.7917 27.7083H21.875V18.9583H24.7917V27.7083ZM24.7917 16.0416H21.875V13.125H24.7917V16.0416ZM26.25 10.2083H8.75001V5.83329H26.25V10.2083Z" fill="#1A4D1A"/>
</svg>
