<svg width="30" height="30" viewBox="0 0 30 30" fill="none" xmlns="http://www.w3.org/2000/svg">
<path d="M13.3333 1.66667C13.3333 1.66667 13.3333 0 15 0C16.6667 0 16.6667 1.66667 16.6667 1.66667V3.33333C16.6667 3.33333 16.6667 5 15 5C13.3333 5 13.3333 3.33333 13.3333 3.33333V1.66667ZM28.3333 13.3333C28.3333 13.3333 30 13.3333 30 15C30 16.6667 28.3333 16.6667 28.3333 16.6667H26.6667C26.6667 16.6667 25 16.6667 25 15C25 13.3333 26.6667 13.3333 26.6667 13.3333H28.3333ZM3.33333 13.3333C3.33333 13.3333 5 13.3333 5 15C5 16.6667 3.33333 16.6667 3.33333 16.6667H1.66667C1.66667 16.6667 0 16.6667 0 15C0 13.3333 1.66667 13.3333 1.66667 13.3333H3.33333ZM7.60083 6.0775C7.60083 6.0775 8.77917 7.25583 7.60083 8.43417C6.4225 9.6125 5.24417 8.43417 5.24417 8.43417L4.065 7.25667C4.065 7.25667 2.88667 6.07833 4.065 4.89917C5.24417 3.72083 6.4225 4.89917 6.4225 4.89917L7.60083 6.0775ZM25.1008 23.5775C25.1008 23.5775 26.2792 24.7558 25.1008 25.9342C23.9225 27.1125 22.7442 25.9342 22.7442 25.9342L21.5658 24.7558C21.5658 24.7558 20.3875 23.5775 21.5658 22.3992C22.7442 21.2208 23.9225 22.3992 23.9225 22.3992L25.1008 23.5775ZM24.7567 8.43417C24.7567 8.43417 23.5783 9.6125 22.4 8.43417C21.2217 7.25583 22.4 6.0775 22.4 6.0775L23.5783 4.89917C23.5783 4.89917 24.7567 3.72083 25.935 4.89917C27.1133 6.0775 25.935 7.25583 25.935 7.25583L24.7567 8.43417ZM7.25667 25.9342C7.25667 25.9342 6.07833 27.1125 4.9 25.9342C3.72167 24.7558 4.9 23.5775 4.9 23.5775L6.07833 22.3992C6.07833 22.3992 7.25667 21.2208 8.435 22.3992C9.61333 23.5775 8.435 24.7558 8.435 24.7558L7.25667 25.9342ZM13.3333 26.6667C13.3333 26.6667 13.3333 25 15 25C16.6667 25 16.6667 26.6667 16.6667 26.6667V28.3333C16.6667 28.3333 16.6667 30 15 30C13.3333 30 13.3333 28.3333 13.3333 28.3333V26.6667Z" fill="#FFAC33"/>
<path d="M15 23.3333C19.6024 23.3333 23.3334 19.6023 23.3334 15C23.3334 10.3976 19.6024 6.66663 15 6.66663C10.3976 6.66663 6.66669 10.3976 6.66669 15C6.66669 19.6023 10.3976 23.3333 15 23.3333Z" fill="#FFAC33"/>
</svg>
