<svg width="20" height="20" viewBox="0 0 20 20" fill="none" xmlns="http://www.w3.org/2000/svg">
<path d="M10 1.25C10.1658 1.25 10.3247 1.31585 10.4419 1.43306C10.5592 1.55027 10.625 1.70924 10.625 1.875V3.125C10.625 3.29076 10.5592 3.44973 10.4419 3.56694C10.3247 3.68415 10.1658 3.75 10 3.75C9.83424 3.75 9.67527 3.68415 9.55806 3.56694C9.44085 3.44973 9.375 3.29076 9.375 3.125V1.875C9.375 1.70924 9.44085 1.55027 9.55806 1.43306C9.67527 1.31585 9.83424 1.25 10 1.25ZM10 13.75C10.9946 13.75 11.9484 13.3549 12.6517 12.6517C13.3549 11.9484 13.75 10.9946 13.75 10C13.75 9.00544 13.3549 8.05161 12.6517 7.34835C11.9484 6.64509 10.9946 6.25 10 6.25C9.00544 6.25 8.05161 6.64509 7.34835 7.34835C6.64509 8.05161 6.25 9.00544 6.25 10C6.25 10.9946 6.64509 11.9484 7.34835 12.6517C8.05161 13.3549 9.00544 13.75 10 13.75ZM10 12.5C9.33696 12.5 8.70107 12.2366 8.23223 11.7678C7.76339 11.2989 7.5 10.663 7.5 10C7.5 9.33696 7.76339 8.70107 8.23223 8.23223C8.70107 7.76339 9.33696 7.5 10 7.5C10.663 7.5 11.2989 7.76339 11.7678 8.23223C12.2366 8.70107 12.5 9.33696 12.5 10C12.5 10.663 12.2366 11.2989 11.7678 11.7678C11.2989 12.2366 10.663 12.5 10 12.5ZM18.125 10.625C18.2908 10.625 18.4497 10.5592 18.5669 10.4419C18.6842 10.3247 18.75 10.1658 18.75 10C18.75 9.83424 18.6842 9.67527 18.5669 9.55806C18.4497 9.44085 18.2908 9.375 18.125 9.375H16.875C16.7092 9.375 16.5503 9.44085 16.4331 9.55806C16.3158 9.67527 16.25 9.83424 16.25 10C16.25 10.1658 16.3158 10.3247 16.4331 10.4419C16.5503 10.5592 16.7092 10.625 16.875 10.625H18.125ZM10 16.25C10.1658 16.25 10.3247 16.3158 10.4419 16.4331C10.5592 16.5503 10.625 16.7092 10.625 16.875V18.125C10.625 18.2908 10.5592 18.4497 10.4419 18.5669C10.3247 18.6842 10.1658 18.75 10 18.75C9.83424 18.75 9.67527 18.6842 9.55806 18.5669C9.44085 18.4497 9.375 18.2908 9.375 18.125V16.875C9.375 16.7092 9.44085 16.5503 9.55806 16.4331C9.67527 16.3158 9.83424 16.25 10 16.25ZM3.125 10.625C3.29076 10.625 3.44973 10.5592 3.56694 10.4419C3.68415 10.3247 3.75 10.1658 3.75 10C3.75 9.83424 3.68415 9.67527 3.56694 9.55806C3.44973 9.44085 3.29076 9.375 3.125 9.375H1.875C1.70924 9.375 1.55027 9.44085 1.43306 9.55806C1.31585 9.67527 1.25 9.83424 1.25 10C1.25 10.1658 1.31585 10.3247 1.43306 10.4419C1.55027 10.5592 1.70924 10.625 1.875 10.625H3.125ZM3.9325 3.9325C3.99056 3.8743 4.05953 3.82812 4.13546 3.79661C4.21139 3.7651 4.29279 3.74888 4.375 3.74888C4.45721 3.74888 4.53861 3.7651 4.61454 3.79661C4.69047 3.82812 4.75944 3.8743 4.8175 3.9325L6.0675 5.1825C6.12561 5.24061 6.17171 5.3096 6.20315 5.38552C6.2346 5.46144 6.25079 5.54282 6.25079 5.625C6.25079 5.70718 6.2346 5.78856 6.20315 5.86448C6.17171 5.9404 6.12561 6.00939 6.0675 6.0675C6.00939 6.12561 5.9404 6.17171 5.86448 6.20315C5.78856 6.2346 5.70718 6.25079 5.625 6.25079C5.54282 6.25079 5.46144 6.2346 5.38552 6.20315C5.3096 6.17171 5.24061 6.12561 5.1825 6.0675L3.9325 4.8175C3.8743 4.75944 3.82812 4.69047 3.79661 4.61454C3.7651 4.53861 3.74888 4.45721 3.74888 4.375C3.74888 4.29279 3.7651 4.21139 3.79661 4.13546C3.82812 4.05953 3.8743 3.99056 3.9325 3.9325ZM4.8175 16.0675C4.75947 16.1256 4.69057 16.1717 4.61472 16.2032C4.53887 16.2347 4.45756 16.2509 4.37544 16.251C4.29332 16.251 4.21199 16.2349 4.1361 16.2035C4.06021 16.1722 3.99123 16.1262 3.93312 16.0681C3.87502 16.0101 3.8289 15.9412 3.79742 15.8653C3.76594 15.7895 3.74971 15.7082 3.74965 15.6261C3.74959 15.5439 3.76571 15.4626 3.79709 15.3867C3.82846 15.3108 3.87447 15.2419 3.9325 15.1838L5.1825 13.9338C5.24053 13.8756 5.30943 13.8295 5.38528 13.798C5.46113 13.7666 5.54244 13.7503 5.62456 13.7503C5.70668 13.7502 5.78801 13.7663 5.8639 13.7977C5.9398 13.8291 6.00876 13.8751 6.06687 13.9331C6.12498 13.9912 6.1711 14.0601 6.20258 14.1359C6.23406 14.2118 6.25029 14.2931 6.25035 14.3752C6.25041 14.4573 6.23429 14.5386 6.20291 14.6145C6.17154 14.6904 6.12553 14.7594 6.0675 14.8175L4.8175 16.0675ZM16.0675 3.9325C16.0094 3.8743 15.9405 3.82812 15.8645 3.79661C15.7886 3.7651 15.7072 3.74888 15.625 3.74888C15.5428 3.74888 15.4614 3.7651 15.3855 3.79661C15.3095 3.82812 15.2406 3.8743 15.1825 3.9325L13.9325 5.1825C13.8151 5.29986 13.7492 5.45903 13.7492 5.625C13.7492 5.79097 13.8151 5.95014 13.9325 6.0675C14.0499 6.18486 14.209 6.25079 14.375 6.25079C14.541 6.25079 14.7001 6.18486 14.8175 6.0675L16.0675 4.8175C16.1257 4.75944 16.1719 4.69047 16.2034 4.61454C16.2349 4.53861 16.2511 4.45721 16.2511 4.375C16.2511 4.29279 16.2349 4.21139 16.2034 4.13546C16.1719 4.05953 16.1257 3.99056 16.0675 3.9325ZM15.1825 16.0675C15.2997 16.1849 15.4587 16.2509 15.6246 16.251C15.7904 16.2511 15.9495 16.1853 16.0669 16.0681C16.1842 15.9509 16.2502 15.7919 16.2503 15.6261C16.2505 15.4602 16.1847 15.3011 16.0675 15.1838L14.8175 13.9338C14.7003 13.8164 14.5413 13.7504 14.3754 13.7503C14.2096 13.7502 14.0505 13.8159 13.9331 13.9331C13.8158 14.0503 13.7498 14.2093 13.7497 14.3752C13.7495 14.541 13.8153 14.7001 13.9325 14.8175L15.1825 16.0675Z" fill="#1A1A18"/>
</svg>
