<svg width="35" height="35" viewBox="0 0 35 35" fill="none" xmlns="http://www.w3.org/2000/svg">
<path d="M20.4166 14.4375V11.9584C21.2187 11.6181 22.0393 11.3629 22.8783 11.1927C23.7173 11.0226 24.5982 10.9375 25.5208 10.9375C26.1528 10.9375 26.7725 10.9862 27.3802 11.0834C27.9878 11.1806 28.5833 11.3021 29.1666 11.448V13.7813C28.5833 13.5625 27.9937 13.3987 27.3977 13.2898C26.8017 13.1809 26.1761 13.126 25.5208 13.125C24.5972 13.125 23.71 13.2407 22.8594 13.4721C22.0087 13.7035 21.1944 14.0253 20.4166 14.4375ZM20.4166 22.4584V19.9792C21.2187 19.6389 22.0393 19.3837 22.8783 19.2136C23.7173 19.0434 24.5982 18.9584 25.5208 18.9584C26.1528 18.9584 26.7725 19.007 27.3802 19.1042C27.9878 19.2014 28.5833 19.323 29.1666 19.4688V21.8021C28.5833 21.5834 27.9937 21.4191 27.3977 21.3092C26.8017 21.1993 26.1761 21.1449 25.5208 21.1459C24.5972 21.1459 23.71 21.2552 22.8594 21.474C22.0087 21.6927 21.1944 22.0209 20.4166 22.4584ZM20.4166 18.448V15.9688C21.2187 15.6285 22.0393 15.3733 22.8783 15.2032C23.7173 15.033 24.5982 14.948 25.5208 14.948C26.1528 14.948 26.7725 14.9966 27.3802 15.0938C27.9878 15.191 28.5833 15.3125 29.1666 15.4584V17.7917C28.5833 17.573 27.9937 17.4087 27.3977 17.2988C26.8017 17.1889 26.1761 17.1345 25.5208 17.1355C24.5972 17.1355 23.71 17.2512 22.8594 17.4825C22.0087 17.7139 21.1944 18.0357 20.4166 18.448ZM9.47915 23.3334C10.6215 23.3334 11.7337 23.4612 12.8158 23.7169C13.8979 23.9726 14.9732 24.3552 16.0416 24.8646V10.5C15.0451 9.91671 13.9878 9.47921 12.8698 9.18754C11.7517 8.89587 10.6215 8.75004 9.47915 8.75004C8.60415 8.75004 7.73498 8.83511 6.87165 9.00525C6.00831 9.17539 5.17609 9.4306 4.37498 9.77087V24.2084C5.22567 23.9167 6.07053 23.698 6.90956 23.5521C7.74859 23.4063 8.60512 23.3334 9.47915 23.3334ZM18.9583 24.8646C20.0278 24.3542 21.1035 23.9716 22.1856 23.7169C23.2677 23.4622 24.3794 23.3343 25.5208 23.3334C26.3958 23.3334 27.2528 23.4063 28.0919 23.5521C28.9309 23.698 29.7753 23.9167 30.625 24.2084V9.77087C29.8229 9.4306 28.9902 9.17539 28.1269 9.00525C27.2635 8.83511 26.3948 8.75004 25.5208 8.75004C24.3785 8.75004 23.2482 8.89587 22.1302 9.18754C21.0121 9.47921 19.9548 9.91671 18.9583 10.5V24.8646ZM17.5 29.1667C16.3333 28.2431 15.0694 27.5261 13.7083 27.0157C12.3472 26.5052 10.9375 26.25 9.47915 26.25C8.45831 26.25 7.45595 26.3837 6.47206 26.6511C5.48817 26.9184 4.54609 27.2952 3.64581 27.7813C3.1354 28.0486 2.64345 28.0365 2.16998 27.7448C1.69651 27.4532 1.45929 27.0278 1.45831 26.4688V8.89587C1.45831 8.62851 1.5254 8.3733 1.65956 8.13025C1.79373 7.88719 1.99401 7.7049 2.2604 7.58337C3.37845 7.00004 4.54512 6.56254 5.7604 6.27087C6.97567 5.97921 8.21526 5.83337 9.47915 5.83337C10.8889 5.83337 12.2685 6.01567 13.6179 6.38025C14.9673 6.74483 16.2614 7.29171 17.5 8.02087C18.7396 7.29171 20.0341 6.74483 21.3835 6.38025C22.733 6.01567 24.1121 5.83337 25.5208 5.83337C26.7847 5.83337 28.0243 5.97921 29.2396 6.27087C30.4548 6.56254 31.6215 7.00004 32.7396 7.58337C33.0069 7.7049 33.2077 7.88719 33.3419 8.13025C33.476 8.3733 33.5426 8.62851 33.5416 8.89587V26.4688C33.5416 27.0278 33.3049 27.4532 32.8314 27.7448C32.358 28.0365 31.8655 28.0486 31.3541 27.7813C30.4548 27.2952 29.5132 26.9184 28.5294 26.6511C27.5455 26.3837 26.5426 26.25 25.5208 26.25C24.0625 26.25 22.6528 26.5052 21.2916 27.0157C19.9305 27.5261 18.6666 28.2431 17.5 29.1667Z" fill="#1A4D1A"/>
</svg>
