<svg width="30" height="30" viewBox="0 0 30 30" fill="none" xmlns="http://www.w3.org/2000/svg">
<path d="M25.2235 10.8493C25.2235 10.8493 25.6266 3.27427 19.6242 1.77427C12.6844 0.0398933 11.318 6.67739 11.318 6.67739C11.318 6.67739 8.61095 6.16411 6.92579 7.99458C5.51251 9.52974 5.64611 11.0321 5.64611 11.0321C5.64611 11.0321 3.78048 10.629 2.31564 11.911C0.850794 13.193 1.07111 14.3977 1.07111 14.3977L5.42579 16.0805C5.42579 16.0805 27.4172 16.1907 27.5274 16.118C27.6375 16.0454 28.9922 13.9219 28.9922 13.9219C28.9922 13.9219 28.7719 12.0915 27.4922 11.3602C26.2102 10.629 25.2235 10.8493 25.2235 10.8493Z" fill="#E2EBEE"/>
<path d="M3.33982 17.2149C4.43669 17.2524 11.6109 17.3977 15.9633 17.3602C20.3156 17.3227 26.9344 17.393 27.8531 16.9594C28.5726 16.6196 29.0015 16.0571 29.0695 15.2696C29.1351 14.5172 28.9898 13.9219 28.9898 13.9219C28.9898 13.9219 27.9656 14.6626 26.025 14.6907C24.8179 14.7071 22.3664 14.5079 22.8422 14.0696C22.9758 13.9454 24.8719 12.5086 24.7804 11.1797C24.7594 10.8657 23.0601 12.4243 21.45 13.0829C19.8398 13.7415 18.3117 14.2501 16.1836 14.1141C14.3906 13.9969 13.6125 13.268 13.6125 13.268C13.6125 13.268 12.7476 14.2829 10.1484 14.5008C7.5492 14.7211 6.98904 13.7438 6.98904 13.7438C6.98904 13.7438 5.73045 14.6954 3.61638 14.6672C1.50701 14.6344 1.09216 13.8751 1.09216 13.8751C1.09216 13.8751 0.892945 15.2274 1.33357 16.0172C1.78357 16.8211 2.60154 17.1915 3.33982 17.2149Z" fill="#B9CED2"/>
<path d="M16.4039 19.1179C16.0031 18.9773 14.5734 20.1094 13.9289 21.2273C13.282 22.35 13.7039 23.1703 14.3953 23.5078C15.1734 23.8875 16.2937 23.6531 16.6125 22.5469C16.9265 21.4523 16.8351 19.2703 16.4039 19.1179ZM8.82654 18.5601C8.46326 18.4312 7.28436 19.5258 6.75467 20.1164C6.04451 20.9109 5.49608 22.3922 6.84373 22.9922C8.20076 23.5945 9.08201 22.6078 9.14998 21.2437C9.21561 19.9734 9.12654 18.6679 8.82654 18.5601ZM11.6883 23.8242C11.3015 23.6156 9.67733 25.057 9.15936 25.9172C8.64373 26.7773 8.67654 27.8812 9.73123 28.3336C10.7859 28.7859 11.7164 28.207 11.9109 26.7C12.0469 25.6312 12.0609 24.0258 11.6883 23.8242ZM19.5422 23.9484C19.2633 23.7914 17.332 25.282 16.8984 26.3672C16.0383 28.5211 18.9773 29.482 19.6453 27.457C20.0344 26.2758 19.8867 24.1429 19.5422 23.9484ZM24.3445 19.3054C23.9625 19.0711 22.357 20.3929 21.8226 21.3867C21.1476 22.6429 21.6726 23.5898 22.4086 23.8898C23.1726 24.1992 24.1547 23.9015 24.4875 22.7695C24.968 21.1383 24.7148 19.5351 24.3445 19.3054Z" fill="#4FC4F8"/>
<path d="M22.5938 21.3493C22.3406 21.3797 22.0266 21.7407 21.9774 22.3571C21.9281 22.9735 22.3172 23.2852 22.7109 23.1282C23.0813 22.9805 23.1422 22.4532 23.1422 22.1204C23.1422 21.7876 22.9852 21.3001 22.5938 21.3493ZM14.7656 21.1547C14.4985 21.0797 14.0016 21.4922 13.9149 22.1602C13.8469 22.6758 14.0461 22.9876 14.4469 23.018C15.0047 23.0602 15.1805 22.3735 15.1664 21.954C15.157 21.7149 15.1149 21.2532 14.7656 21.1547ZM9.94923 25.7321C9.70079 25.7133 9.28361 26.1305 9.28361 26.7797C9.28361 27.429 9.62111 27.7102 10.0195 27.6235C10.418 27.5344 10.4977 26.7727 10.4719 26.4704C10.4461 26.168 10.3172 25.7602 9.94923 25.7321ZM7.24454 20.7282C6.90939 20.6321 6.48048 21.0563 6.42892 21.5344C6.37501 22.0126 6.59767 22.3594 6.95157 22.4133C7.30548 22.4672 7.60783 22.0407 7.64298 21.5438C7.68048 21.0469 7.55626 20.8149 7.24454 20.7282ZM17.9063 26.0086C17.5969 25.9829 17.1539 26.4399 17.1656 27.1313C17.1774 27.8227 17.536 27.9399 17.7727 27.954C18.1125 27.9751 18.3492 27.5743 18.3797 26.9461C18.4055 26.4188 18.286 26.0391 17.9063 26.0086Z" fill="#AEE6FD"/>
</svg>
