<svg width="28" height="28" viewBox="0 0 28 28" fill="none" xmlns="http://www.w3.org/2000/svg">
<rect width="28" height="28" rx="14" fill="#FFF0F0"/>
<path d="M18.7692 10.5V8.75C18.7692 8.28587 18.5869 7.84075 18.2623 7.51256C17.9377 7.18437 17.4975 7 17.0385 7H8.73077C8.27174 7 7.83151 7.18437 7.50693 7.51256C7.18235 7.84075 7 8.28587 7 8.75V19.25C7 19.7141 7.18235 20.1592 7.50693 20.4874C7.83151 20.8156 8.27174 21 8.73077 21H17.0385C17.4975 21 17.9377 20.8156 18.2623 20.4874C18.5869 20.1592 18.7692 19.7141 18.7692 19.25V17.5M21.5385 17.5L25 14L21.5385 10.5M25 14H13.1875" stroke="#B82C2C" stroke-width="1.25" stroke-linecap="round" stroke-linejoin="round"/>
</svg>
