<svg width="20" height="20" viewBox="0 0 20 20" fill="none" xmlns="http://www.w3.org/2000/svg">
<path fill-rule="evenodd" clip-rule="evenodd" d="M11.6667 14.9998C11.6667 15.9203 10.9205 16.6665 10 16.6665C9.07953 16.6665 8.33332 15.9203 8.33332 14.9998H11.6667ZM10 1.6665C6.775 1.6665 4.16668 4.64982 4.16668 8.33318V10.2415L2.5 14.9998H6.66668C6.66668 16.8408 8.15906 18.3332 10 18.3332C11.8409 18.3332 13.3333 16.8408 13.3333 14.9998H17.5L15.8333 10.2415V8.57482C15.8333 5.4165 13.9917 2.52482 11.2917 1.90818C10.8725 1.77551 10.4388 1.69436 10 1.6665ZM4.85 13.3332L5.74168 10.8332L5.83332 10.5248V8.33318C5.83332 5.57482 7.7 3.33318 10 3.33318C10.3005 3.33266 10.6 3.36904 10.8917 3.4415C12.7583 3.89982 14.1667 6.0915 14.1667 8.53318V10.5248L14.2583 10.7915L15.15 13.3332H4.85Z" fill="#1A1A18"/>
</svg>
