<svg width="20" height="20" viewBox="0 0 20 20" fill="none" xmlns="http://www.w3.org/2000/svg">
<path d="M1.66665 1.6665L18.3333 18.3332M6.95832 2.2415C8.46717 1.65219 10.1151 1.5154 11.7004 1.84787C13.2858 2.18034 14.7399 2.96766 15.8849 4.11351C17.0298 5.25936 17.816 6.71407 18.1473 8.29969C18.4785 9.88532 18.3405 11.5331 17.75 13.0415M15.9 15.8998C15.1252 16.6746 14.2054 17.2892 13.193 17.7086C12.1807 18.1279 11.0957 18.3437 9.99999 18.3437C8.90426 18.3437 7.81925 18.1279 6.80693 17.7086C5.79461 17.2892 4.87479 16.6746 4.09999 15.8998C3.32519 15.125 2.71058 14.2052 2.29127 13.1929C1.87195 12.1806 1.65613 11.0956 1.65613 9.99984C1.65613 8.90411 1.87195 7.8191 2.29127 6.80678C2.71058 5.79446 3.32519 4.87464 4.09999 4.09984" stroke="#1A1A18" stroke-width="1.66667" stroke-linecap="round" stroke-linejoin="round"/>
</svg>
