<svg width="20" height="20" viewBox="0 0 20 20" fill="none" xmlns="http://www.w3.org/2000/svg">
<path d="M17.5 7.5002H10.8333V5.50853C11.4833 5.4252 12.3083 5.20853 12.9416 4.65853C14.1583 3.59187 14.1666 1.68353 14.1666 1.68353C14.1666 1.68353 12.2083 1.50853 10.9916 2.5752C10.3333 3.1502 10.0333 3.96687 9.89163 4.6002C9.79163 4.1252 9.59163 3.56687 9.16663 3.1502C8.24996 2.26687 6.66663 2.36687 6.66663 2.36687C6.66663 2.36687 6.56663 3.90853 7.47496 4.79187C7.95829 5.26687 8.63329 5.4502 9.15829 5.53353V7.51687H2.49996C2.04163 7.51687 1.66663 7.89187 1.66663 8.3502V11.6835C1.66663 12.1419 2.04163 12.5169 2.49996 12.5169H3.54163L5.03329 17.7419C5.13329 18.1002 5.46663 18.3502 5.83329 18.3502H14.1666C14.5416 18.3502 14.8666 18.1002 14.9666 17.7419L16.4583 12.5169H17.5C17.9583 12.5169 18.3333 12.1419 18.3333 11.6835V8.3502C18.3333 7.89187 17.9583 7.51687 17.5 7.51687V7.5002ZM13.5416 16.6669H6.45829L5.26663 12.5002H14.725L13.5333 16.6669H13.5416ZM16.6666 10.8335H3.33329V9.16687H16.6666V10.8335Z" fill="#1A1A18"/>
</svg>
