<svg width="25" height="25" viewBox="0 0 25 25" fill="none" xmlns="http://www.w3.org/2000/svg">
<path d="M16.4062 2.0835C17.0279 2.0835 17.624 2.33043 18.0635 2.76996C18.5031 3.2095 18.75 3.80564 18.75 4.42725V20.5731C18.75 21.1947 18.5031 21.7908 18.0635 22.2304C17.624 22.6699 17.0279 22.9168 16.4062 22.9168H8.59375C7.97215 22.9168 7.37601 22.6699 6.93647 22.2304C6.49693 21.7908 6.25 21.1947 6.25 20.5731V4.42725C6.25 3.80564 6.49693 3.2095 6.93647 2.76996C7.37601 2.33043 7.97215 2.0835 8.59375 2.0835H16.4062ZM16.4062 3.646H8.59375C8.38655 3.646 8.18784 3.72831 8.04132 3.87482C7.89481 4.02133 7.8125 4.22005 7.8125 4.42725V20.5731C7.8125 21.0043 8.1625 21.3543 8.59375 21.3543H16.4062C16.6135 21.3543 16.8122 21.272 16.9587 21.1255C17.1052 20.979 17.1875 20.7803 17.1875 20.5731V4.42725C17.1875 4.22005 17.1052 4.02133 16.9587 3.87482C16.8122 3.72831 16.6135 3.646 16.4062 3.646ZM13.801 18.2293C14.0082 18.2291 14.2071 18.3111 14.3538 18.4574C14.5005 18.6037 14.5831 18.8023 14.5833 19.0095C14.5836 19.2167 14.5016 19.4156 14.3552 19.5623C14.2089 19.709 14.0103 19.7916 13.8031 19.7918L11.199 19.796C10.9918 19.7963 10.7929 19.7142 10.6462 19.5679C10.4995 19.4216 10.4169 19.223 10.4167 19.0158C10.4164 18.8086 10.4984 18.6098 10.6448 18.4631C10.7911 18.3163 10.9897 18.2338 11.1969 18.2335L13.801 18.2293Z" fill="black"/>
</svg>
