<svg width="20" height="20" viewBox="0 0 20 20" fill="none" xmlns="http://www.w3.org/2000/svg">
<path d="M11 10.6038C10.3143 10.6038 9.85714 11.0566 9.85714 11.7359C9.85714 12.1887 10.2 12.5283 10.5429 12.6415L10.2 14.2264H11.6857L11.3429 12.6415C11.8 12.5283 12.0286 12.1887 12.0286 11.7359C12.1429 11.0566 11.6857 10.6038 11 10.6038ZM11.1143 5.73585C10.3143 5.73585 9.51429 6.30189 9.51429 7.09434V8.79245H12.6V7.09434C12.4857 6.30189 11.9143 5.73585 11.1143 5.73585ZM11 2L3 5.39623V8.79245C3.11429 13.7736 6.31429 18.1887 11 20C15.6857 18.1887 18.8857 13.7736 19 8.79245V5.39623L11 2ZM15.5714 14.4528C15.5714 15.1321 15.1143 15.5849 14.4286 15.5849H7.57143C6.88571 15.5849 6.42857 15.1321 6.42857 14.4528V9.92453C6.42857 9.24528 6.88571 8.79245 7.57143 8.79245H7.91429V7.09434C8.02857 5.50943 9.4 4.26415 11 4.26415C12.6 4.26415 13.9714 5.50943 14.0857 7.09434V8.79245H14.4286C15.1143 8.79245 15.5714 9.24528 15.5714 9.92453V14.4528Z" fill="black"/>
</svg>
