<svg width="35" height="35" viewBox="0 0 35 35" fill="none" xmlns="http://www.w3.org/2000/svg">
<path d="M15.3175 17.5C16.3331 17.4999 17.3386 17.7018 18.2754 18.0941C19.2123 18.4864 20.0617 19.0611 20.7742 19.7848C21.4868 20.5086 22.0482 21.3669 22.4258 22.3097C22.8034 23.2525 22.9897 24.2611 22.9737 25.2766C22.9711 25.4447 23.0074 25.6112 23.0796 25.763C23.1518 25.9149 23.2581 26.0481 23.3901 26.1522C23.5222 26.2563 23.6765 26.3285 23.841 26.3633C24.0055 26.3982 24.1758 26.3946 24.3387 26.3528C24.8237 26.2286 25.3308 26.2167 25.8211 26.3182C26.3114 26.4197 26.772 26.6318 27.1679 26.9384C27.5637 27.245 27.8843 27.638 28.1052 28.0874C28.3261 28.5367 28.4415 29.0306 28.4425 29.5313C28.4425 30.4015 28.0968 31.2361 27.4814 31.8515C26.866 32.4668 26.0315 32.8125 25.1612 32.8125H6.56746C5.98581 32.8092 5.41065 32.69 4.87563 32.4618C4.34061 32.2336 3.85647 31.901 3.45153 31.4834C3.04658 31.0658 2.72897 30.5717 2.51726 30.03C2.30555 29.4882 2.20399 28.9097 2.21854 28.3282C2.23308 27.7467 2.36343 27.174 2.60196 26.6435C2.84049 26.113 3.18241 25.6354 3.60772 25.2386C4.03304 24.8418 4.5332 24.5338 5.07896 24.3326C5.62472 24.1314 6.20512 24.0411 6.78621 24.0669C7.03826 24.0799 7.28704 24.0053 7.49037 23.8558C7.6937 23.7063 7.83907 23.491 7.90184 23.2466C8.32546 21.6019 9.28391 20.1447 10.6264 19.1044C11.9688 18.0641 13.6191 17.4997 15.3175 17.5ZM25.1021 24.0625C24.856 21.8447 23.8637 19.7763 22.2878 18.1964C20.712 16.6166 18.6461 15.619 16.4289 15.3673C14.2117 15.1156 11.9748 15.6246 10.0849 16.811C8.19494 17.9974 6.76417 19.7907 6.02715 21.8969C4.33827 22.0351 2.76832 22.8213 1.64594 24.0908C0.523565 25.3603 -0.0642378 27.0148 0.00557743 28.7079C0.0753926 30.401 0.797414 32.0014 2.0205 33.1743C3.24359 34.3471 4.87293 35.0013 6.56746 35H25.1612C26.6116 35 28.0026 34.4238 29.0282 33.3983C30.0538 32.3727 30.63 30.9817 30.63 29.5313C30.63 28.0809 30.0538 26.6899 29.0282 25.6643C28.0026 24.6387 26.6116 24.0625 25.1612 24.0625H25.1021Z" fill="#1A4D1A"/>
<path d="M22.9737 3.28125C22.9737 2.99117 22.8585 2.71297 22.6534 2.50785C22.4483 2.30273 22.1701 2.1875 21.88 2.1875C21.5899 2.1875 21.3117 2.30273 21.1066 2.50785C20.9015 2.71297 20.7862 2.99117 20.7862 3.28125V5.46875C20.7862 5.75883 20.9015 6.03703 21.1066 6.24215C21.3117 6.44727 21.5899 6.5625 21.88 6.5625C22.1701 6.5625 22.4483 6.44727 22.6534 6.24215C22.8585 6.03703 22.9737 5.75883 22.9737 5.46875V3.28125ZM31.1615 7.5775C31.266 7.4766 31.3493 7.35592 31.4066 7.22247C31.464 7.08903 31.4941 6.94551 31.4954 6.80028C31.4967 6.65506 31.469 6.51103 31.414 6.37661C31.359 6.2422 31.2778 6.12008 31.1751 6.01738C31.0724 5.91469 30.9503 5.83347 30.8159 5.77848C30.6814 5.72348 30.5374 5.69581 30.3922 5.69707C30.247 5.69833 30.1034 5.7285 29.97 5.78583C29.8366 5.84315 29.7159 5.92647 29.615 6.03094L28.0662 7.5775C27.8608 7.78288 27.7455 8.06143 27.7455 8.35188C27.7455 8.64232 27.8608 8.92087 28.0662 9.12625C28.2716 9.33163 28.5502 9.44701 28.8406 9.44701C29.131 9.44701 29.4096 9.33163 29.615 9.12625L31.1615 7.5775ZM14.145 6.03094C13.9387 5.8317 13.6624 5.72146 13.3756 5.72395C13.0889 5.72644 12.8145 5.84147 12.6117 6.04426C12.4089 6.24705 12.2939 6.52138 12.2914 6.80816C12.2889 7.09493 12.3992 7.37122 12.5984 7.5775L14.145 9.12625C14.2467 9.22794 14.3674 9.30861 14.5003 9.36364C14.6331 9.41868 14.7755 9.44701 14.9193 9.44701C15.0632 9.44701 15.2056 9.41868 15.3384 9.36364C15.4713 9.30861 15.592 9.22794 15.6937 9.12625C15.7954 9.02456 15.8761 8.90383 15.9311 8.77096C15.9862 8.6381 16.0145 8.49569 16.0145 8.35188C16.0145 8.20806 15.9862 8.06565 15.9311 7.93279C15.8761 7.79992 15.7954 7.67919 15.6937 7.5775L14.145 6.03094ZM17.9381 13.4116C18.21 12.8481 18.5995 12.3496 19.0805 11.9495C19.5614 11.5495 20.1225 11.2572 20.726 11.0924C21.3295 10.9276 21.9613 10.8942 22.5788 10.9944C23.1963 11.0945 23.7852 11.326 24.3057 11.673C24.8261 12.0201 25.2661 12.4748 25.5959 13.0064C25.9257 13.538 26.1377 14.1341 26.2175 14.7545C26.2974 15.375 26.2432 16.0054 26.0588 16.6031C25.8743 17.2009 25.5637 17.7521 25.1481 18.2197C25.5856 18.8366 25.9618 19.4914 26.2768 20.1841C27.0182 19.5142 27.5968 18.684 27.9686 17.7566C28.3403 16.8293 28.4954 15.8293 28.4221 14.8328C28.3487 13.8364 28.0488 12.8699 27.5452 12.007C27.0416 11.1441 26.3476 10.4076 25.5162 9.85355C24.6848 9.29954 23.7378 8.94269 22.7475 8.8102C21.7572 8.67771 20.7498 8.77309 19.8019 9.08905C18.8541 9.40502 17.9909 9.93323 17.2782 10.6334C16.5655 11.3336 16.0221 12.1873 15.6893 13.1294C16.4608 13.1542 17.2104 13.2482 17.9381 13.4116ZM27.7468 22.3234C29.0593 22.7938 30.2078 23.6141 31.0762 24.6684C31.1953 24.572 31.2928 24.4516 31.3624 24.3151C31.432 24.1785 31.4721 24.0289 31.4801 23.8759C31.4882 23.7228 31.464 23.5698 31.4091 23.4267C31.3542 23.2837 31.2699 23.1537 31.1615 23.0453L29.615 21.4988C29.459 21.3419 29.2592 21.236 29.0419 21.195C28.8246 21.1541 28.5999 21.1799 28.3976 21.2693C28.1952 21.3586 28.0247 21.5071 27.9086 21.6953C27.7924 21.8835 27.736 22.1025 27.7468 22.3234ZM31.7237 14.2188C31.4336 14.2188 31.1554 14.334 30.9503 14.5391C30.7452 14.7442 30.63 15.0224 30.63 15.3125C30.63 15.6026 30.7452 15.8808 30.9503 16.0859C31.1554 16.291 31.4336 16.4062 31.7237 16.4062H33.9112C34.2013 16.4062 34.4795 16.291 34.6846 16.0859C34.8897 15.8808 35.005 15.6026 35.005 15.3125C35.005 15.0224 34.8897 14.7442 34.6846 14.5391C34.4795 14.334 34.2013 14.2188 33.9112 14.2188H31.7237Z" fill="#1A4D1A"/>
</svg>
